<svg width="43" height="42" viewBox="0 0 43 42" fill="none" xmlns="http://www.w3.org/2000/svg">
<path d="M4.61204 22.9063H7.16293V1.70129H4.60769C3.44831 1.70517 2.33738 2.16315 1.51655 2.97561C0.695722 3.78808 0.231407 4.88929 0.224609 6.0397V24.9526C0.409631 24.8156 0.476054 24.6772 0.604552 24.5501C1.13074 24.028 1.75557 23.6141 2.44325 23.332C3.13092 23.05 3.86792 22.9053 4.61204 22.9063ZM28.0704 23.0644C28.0704 23.6365 28.2995 24.1852 28.7072 24.5898C29.1149 24.9943 29.6678 25.2216 30.2444 25.2216C30.821 25.2216 31.374 24.9943 31.7817 24.5898C32.1894 24.1852 32.4184 23.6365 32.4184 23.0644V5.18957H28.0704V23.0644ZM14.7197 39.6133H13.0836V42H18.5418V13.8185H13.0836V16.7559H14.7197C14.8914 16.7559 15.0562 16.8236 15.1776 16.9442C15.299 17.0647 15.3673 17.2281 15.3673 17.3985C15.3673 17.5689 15.299 17.7324 15.1776 17.8529C15.0562 17.9734 14.8914 18.0411 14.7197 18.0411H13.0836V20.336H14.1776C14.3493 20.336 14.514 20.4037 14.6355 20.5242C14.7569 20.6447 14.8252 20.8082 14.8252 20.9786C14.8252 21.149 14.7569 21.3125 14.6355 21.433C14.514 21.5535 14.3493 21.6212 14.1776 21.6212H13.0836V23.9161H14.7197C14.8914 23.9161 15.0562 23.9838 15.1776 24.1043C15.299 24.2248 15.3673 24.3882 15.3673 24.5587C15.3673 24.7291 15.299 24.8925 15.1776 25.013C15.0562 25.1335 14.8914 25.2012 14.7197 25.2012H13.0836V27.4962H14.1776C14.3493 27.4962 14.514 27.5639 14.6355 27.6844C14.7569 27.8049 14.8252 27.9683 14.8252 28.1387C14.8252 28.3092 14.7569 28.4726 14.6355 28.5931C14.514 28.7136 14.3493 28.7813 14.1776 28.7813H13.0836V31.0762H14.7197C14.8914 31.0762 15.0562 31.1439 15.1776 31.2644C15.299 31.3849 15.3673 31.5484 15.3673 31.7188C15.3673 31.8892 15.299 32.0527 15.1776 32.1732C15.0562 32.2937 14.8914 32.3614 14.7197 32.3614H13.0836V34.7481H14.1776C14.3493 34.7481 14.514 34.8158 14.6355 34.9363C14.7569 35.0568 14.8252 35.2202 14.8252 35.3907C14.8252 35.5611 14.7569 35.7245 14.6355 35.845C14.514 35.9655 14.3493 36.0332 14.1776 36.0332H13.0836V38.3282H14.7197C14.8914 38.3282 15.0562 38.3959 15.1776 38.5164C15.299 38.6369 15.3673 38.8003 15.3673 38.9707C15.3673 39.1412 15.299 39.3046 15.1776 39.4251C15.0562 39.5456 14.8914 39.6133 14.7197 39.6133Z" fill="#F05E23"/>
<path d="M28.4654 3.90439H32.053L30.2592 0L28.4654 3.90439Z" fill="#F05E23"/>
<path d="M39.1236 34.1972H33.8061V40.2558H39.1296C39.5322 40.2558 39.9309 40.177 40.3029 40.0239C40.6748 39.8709 41.0127 39.6466 41.2972 39.3639C41.5818 39.0811 41.8073 38.7455 41.961 38.3762C42.1147 38.0069 42.1936 37.6112 42.1931 37.2116L42.217 37.2265H42.2246V37.184C42.2223 36.7869 42.1398 36.3942 41.9821 36.0292C41.8244 35.6641 41.5945 35.3342 41.3061 35.0587C41.0174 34.7796 40.676 34.5598 40.3015 34.412C39.9269 34.2641 39.5267 34.1911 39.1236 34.1972ZM39.3577 7.73868L33.7136 7.70976V23.0643C33.7136 23.9773 33.3481 24.8529 32.6975 25.4984C32.0469 26.144 31.1645 26.5067 30.2444 26.5067C29.3243 26.5067 28.442 26.144 27.7914 25.4984C27.1408 24.8529 26.7753 23.9773 26.7753 23.0643V7.66561L8.45809 7.56592V23.56C8.45809 23.9149 8.2109 24.1914 7.85325 24.1914H4.61268C3.45364 24.1926 2.34206 24.6483 1.52013 25.4592C0.698202 26.2701 0.232542 27.3705 0.224609 28.5205V28.5303C0.228264 29.6856 0.690191 30.7931 1.51046 31.6132C2.33072 32.4332 3.44337 32.8998 4.60769 32.9121H11.7885V13.1366C11.7885 12.7817 12.0812 12.5332 12.4388 12.5332H19.1689C19.5266 12.5332 19.8369 12.7817 19.8369 13.1366V32.9121H39.1172C40.2775 32.9121 41.392 33.3008 42.2246 34.1105V10.6147C42.2267 9.85667 41.9263 9.12868 41.3891 8.58978C40.8519 8.05088 40.1216 7.74489 39.3577 7.73868Z" fill="#F05E23"/>
</svg>
