<svg width="49" height="48" viewBox="0 0 49 48" fill="none" xmlns="http://www.w3.org/2000/svg">
<path d="M5.22461 5C5.77689 5 6.22461 4.55228 6.22461 4C6.22461 3.44772 5.77689 3 5.22461 3C4.67232 3 4.22461 3.44772 4.22461 4C4.22461 4.55228 4.67232 5 5.22461 5Z" fill="#F05E23"/>
<path d="M9.22461 5C9.77689 5 10.2246 4.55228 10.2246 4C10.2246 3.44772 9.77689 3 9.22461 3C8.67232 3 8.22461 3.44772 8.22461 4C8.22461 4.55228 8.67232 5 9.22461 5Z" fill="#F05E23"/>
<path d="M13.2246 5C13.7769 5 14.2246 4.55228 14.2246 4C14.2246 3.44772 13.7769 3 13.2246 3C12.6723 3 12.2246 3.44772 12.2246 4C12.2246 4.55228 12.6723 5 13.2246 5Z" fill="#F05E23"/>
<path d="M47.2246 35H45.6446C45.6237 34.9619 45.607 34.9217 45.5946 34.88L46.7146 33.76C46.8073 33.6666 46.8806 33.5557 46.9304 33.4339C46.9801 33.3121 47.0054 33.1816 47.0046 33.05C47.0009 32.7852 46.8973 32.5316 46.7146 32.34L44.2246 29.86V4C44.2246 2.93913 43.8032 1.92172 43.053 1.17157C42.3029 0.421427 41.2855 0 40.2246 0L4.22461 0C3.16374 0 2.14633 0.421427 1.39618 1.17157C0.646037 1.92172 0.224609 2.93913 0.224609 4L0.224609 39C0.224609 39.2652 0.329966 39.5196 0.517503 39.7071C0.705039 39.8946 0.959393 40 1.22461 40H28.2246C28.2246 40.2652 28.33 40.5196 28.5175 40.7071C28.705 40.8946 28.9594 41 29.2246 41H30.8046C30.8255 41.0381 30.8423 41.0783 30.8546 41.12L29.7346 42.24C29.6419 42.3334 29.5686 42.4443 29.5188 42.5661C29.4691 42.6879 29.4438 42.8184 29.4446 42.95C29.4483 43.2148 29.5519 43.4684 29.7346 43.66L32.5646 46.49C32.6576 46.5837 32.7682 46.6581 32.89 46.7089C33.0119 46.7597 33.1426 46.7858 33.2746 46.7858C33.4066 46.7858 33.5373 46.7597 33.6592 46.7089C33.781 46.6581 33.8916 46.5837 33.9846 46.49L35.1046 45.37L35.2246 45.42V47C35.2246 47.2652 35.33 47.5196 35.5175 47.7071C35.705 47.8946 35.9594 48 36.2246 48H40.2246C40.4898 48 40.7442 47.8946 40.9317 47.7071C41.1193 47.5196 41.2246 47.2652 41.2246 47V45.42L41.3446 45.37L42.4646 46.49C42.5581 46.5827 42.6689 46.656 42.7907 46.7058C42.9125 46.7555 43.043 46.7808 43.1746 46.78C43.4394 46.7763 43.693 46.6727 43.8846 46.49L46.7146 43.66C46.8973 43.4684 47.0009 43.2148 47.0046 42.95C47.0054 42.8184 46.9801 42.6879 46.9304 42.5661C46.8806 42.4443 46.8073 42.3334 46.7146 42.24L45.5946 41.12C45.607 41.0783 45.6237 41.0381 45.6446 41H47.2246C47.4898 41 47.7442 40.8946 47.9317 40.7071C48.1193 40.5196 48.2246 40.2652 48.2246 40V36C48.2246 35.7348 48.1193 35.4804 47.9317 35.2929C47.7442 35.1054 47.4898 35 47.2246 35ZM2.22461 4C2.22461 3.46957 2.43532 2.96086 2.8104 2.58579C3.18547 2.21071 3.69418 2 4.22461 2H40.2246C40.755 2 41.2638 2.21071 41.6388 2.58579C42.0139 2.96086 42.2246 3.46957 42.2246 4V6H2.22461V4ZM2.22461 38V8H42.2246V29.76L41.3446 30.63L41.2246 30.58V29C41.2246 28.7348 41.1193 28.4804 40.9317 28.2929C40.7442 28.1054 40.4898 28 40.2246 28H36.2246C35.9594 28 35.705 28.1054 35.5175 28.2929C35.33 28.4804 35.2246 28.7348 35.2246 29V30.58L35.1046 30.63L33.9846 29.51C33.8912 29.4173 33.7804 29.344 33.6585 29.2942C33.5367 29.2445 33.4062 29.2192 33.2746 29.22C33.0098 29.2237 32.7562 29.3273 32.5646 29.51L29.7346 32.34C29.5519 32.5316 29.4483 32.7852 29.4446 33.05C29.4438 33.1816 29.4691 33.3121 29.5188 33.4339C29.5686 33.5557 29.6419 33.6666 29.7346 33.76L30.8546 34.88C30.8423 34.9217 30.8255 34.9619 30.8046 35H29.2246C28.9594 35 28.705 35.1054 28.5175 35.2929C28.33 35.4804 28.2246 35.7348 28.2246 36V38H2.22461ZM46.2246 39H44.9346C44.7128 38.9905 44.494 39.0551 44.313 39.1837C44.1319 39.3123 43.9988 39.4974 43.9346 39.71C43.8189 40.1056 43.6613 40.4878 43.4646 40.85C43.3746 41.0395 43.3464 41.2525 43.3841 41.4589C43.4218 41.6653 43.5234 41.8546 43.6746 42L44.5846 42.91L43.2246 44.36L42.2246 43.45C42.0715 43.2965 41.8726 43.1969 41.658 43.1662C41.4434 43.1356 41.2246 43.1755 41.0346 43.28C40.6724 43.4767 40.2902 43.6343 39.8946 43.75C39.682 43.8142 39.4969 43.9473 39.3683 44.1284C39.2398 44.3094 39.1751 44.5281 39.1846 44.75V46H37.2246V44.71C37.2341 44.4881 37.1695 44.2694 37.0409 44.0884C36.9123 43.9073 36.7272 43.7742 36.5146 43.71C36.119 43.5943 35.7368 43.4367 35.3746 43.24C35.1846 43.1355 34.9659 43.0956 34.7512 43.1262C34.5366 43.1569 34.3377 43.2565 34.1846 43.41L33.2746 44.32L31.8646 43L32.7746 42.09C32.9281 41.9369 33.0277 41.738 33.0584 41.5234C33.089 41.3088 33.0491 41.09 32.9446 40.9C32.7479 40.5378 32.5903 40.1556 32.4746 39.76C32.4104 39.5474 32.2773 39.3623 32.0962 39.2337C31.9152 39.1051 31.6965 39.0405 31.4746 39.05H30.2246V37H31.5146C31.7365 37.0095 31.9552 36.9449 32.1362 36.8163C32.3173 36.6877 32.4504 36.5026 32.5146 36.29C32.6303 35.8944 32.7879 35.5122 32.9846 35.15C33.0747 34.9605 33.1028 34.7475 33.0652 34.5411C33.0275 34.3347 32.9258 34.1454 32.7746 34L31.8646 33.09L33.2746 31.68L34.1846 32.59C34.3377 32.7435 34.5366 32.8431 34.7512 32.8738C34.9659 32.9044 35.1846 32.8645 35.3746 32.76C35.7368 32.5633 36.119 32.4057 36.5146 32.29C36.7272 32.2258 36.9123 32.0927 37.0409 31.9116C37.1695 31.7306 37.2341 31.5119 37.2246 31.29V30H39.2246V31.29C39.2151 31.5119 39.2798 31.7306 39.4083 31.9116C39.5369 32.0927 39.722 32.2258 39.9346 32.29C40.3302 32.4057 40.7124 32.5633 41.0746 32.76C41.2641 32.8501 41.4771 32.8782 41.6835 32.8405C41.8899 32.8029 42.0792 32.7012 42.2246 32.55L43.1346 31.64L44.5446 33.05L43.6346 33.96C43.4811 34.1131 43.3815 34.312 43.3508 34.5266C43.3202 34.7412 43.3601 34.96 43.4646 35.15C43.6613 35.5122 43.8189 35.8944 43.9346 36.29C43.9988 36.5026 44.1319 36.6877 44.313 36.8163C44.494 36.9449 44.7128 37.0095 44.9346 37H46.2246V39Z" fill="#F05E23"/>
<path d="M38.2246 34C37.4335 34 36.6601 34.2346 36.0023 34.6741C35.3445 35.1136 34.8318 35.7383 34.5291 36.4692C34.2263 37.2001 34.1471 38.0044 34.3015 38.7803C34.4558 39.5563 34.8368 40.269 35.3962 40.8284C35.9556 41.3878 36.6683 41.7688 37.4442 41.9231C38.2202 42.0775 39.0244 41.9982 39.7553 41.6955C40.4862 41.3927 41.111 40.8801 41.5505 40.2223C41.99 39.5645 42.2246 38.7911 42.2246 38C42.2246 36.9391 41.8032 35.9217 41.053 35.1716C40.3029 34.4214 39.2855 34 38.2246 34ZM38.2246 40C37.829 40 37.4424 39.8827 37.1135 39.6629C36.7846 39.4432 36.5282 39.1308 36.3769 38.7653C36.2255 38.3999 36.1859 37.9978 36.263 37.6098C36.3402 37.2218 36.5307 36.8655 36.8104 36.5858C37.0901 36.3061 37.4465 36.1156 37.8344 36.0384C38.2224 35.9612 38.6245 36.0008 38.99 36.1522C39.3554 36.3036 39.6678 36.5599 39.8876 36.8888C40.1073 37.2177 40.2246 37.6044 40.2246 38C40.2246 38.5304 40.0139 39.0391 39.6388 39.4142C39.2638 39.7893 38.755 40 38.2246 40ZM17.9346 18.29C17.8416 18.1963 17.731 18.1219 17.6092 18.0711C17.4873 18.0203 17.3566 17.9942 17.2246 17.9942C17.0926 17.9942 16.9619 18.0203 16.84 18.0711C16.7182 18.1219 16.6076 18.1963 16.5146 18.29L12.5146 22.29C12.4209 22.3829 12.3465 22.4935 12.2957 22.6154C12.2449 22.7373 12.2188 22.868 12.2188 23C12.2188 23.132 12.2449 23.2627 12.2957 23.3846C12.3465 23.5064 12.4209 23.617 12.5146 23.71L16.5146 27.71C16.6076 27.8037 16.7182 27.8781 16.84 27.9289C16.9619 27.9796 17.0926 28.0058 17.2246 28.0058C17.3566 28.0058 17.4873 27.9796 17.6092 27.9289C17.731 27.8781 17.8416 27.8037 17.9346 27.71C18.0283 27.617 18.1027 27.5064 18.1535 27.3846C18.2043 27.2627 18.2304 27.132 18.2304 27C18.2304 26.868 18.2043 26.7373 18.1535 26.6154C18.1027 26.4935 18.0283 26.3829 17.9346 26.29L14.6346 23L17.9346 19.71C18.0283 19.617 18.1027 19.5064 18.1535 19.3846C18.2043 19.2627 18.2304 19.132 18.2304 19C18.2304 18.868 18.2043 18.7373 18.1535 18.6154C18.1027 18.4935 18.0283 18.3829 17.9346 18.29ZM31.9346 22.29L27.9346 18.29C27.7463 18.1017 27.4909 17.9959 27.2246 17.9959C26.9583 17.9959 26.7029 18.1017 26.5146 18.29C26.3263 18.4783 26.2205 18.7337 26.2205 19C26.2205 19.2663 26.3263 19.5217 26.5146 19.71L29.8146 23L26.5146 26.29C26.4209 26.3829 26.3465 26.4935 26.2957 26.6154C26.2449 26.7373 26.2188 26.868 26.2188 27C26.2188 27.132 26.2449 27.2627 26.2957 27.3846C26.3465 27.5064 26.4209 27.617 26.5146 27.71C26.6076 27.8037 26.7182 27.8781 26.84 27.9289C26.9619 27.9796 27.0926 28.0058 27.2246 28.0058C27.3566 28.0058 27.4873 27.9796 27.6092 27.9289C27.731 27.8781 27.8416 27.8037 27.9346 27.71L31.9346 23.71C32.0283 23.617 32.1027 23.5064 32.1535 23.3846C32.2043 23.2627 32.2304 23.132 32.2304 23C32.2304 22.868 32.2043 22.7373 32.1535 22.6154C32.1027 22.4935 32.0283 22.3829 31.9346 22.29ZM23.4246 17C23.2931 16.9709 23.1571 16.9687 23.0247 16.9936C22.8923 17.0184 22.7663 17.0697 22.6542 17.1444C22.5421 17.2191 22.4463 17.3157 22.3725 17.4283C22.2987 17.541 22.2484 17.6674 22.2246 17.8L20.2246 27.8C20.1956 27.9315 20.1934 28.0675 20.2182 28.1999C20.243 28.3323 20.2943 28.4583 20.369 28.5704C20.4437 28.6824 20.5403 28.7783 20.653 28.8521C20.7656 28.9259 20.892 28.9762 21.0246 29H21.2246C21.4586 29.0047 21.6867 28.9272 21.8695 28.7811C22.0522 28.6349 22.1779 28.4293 22.2246 28.2L24.2246 18.2C24.2537 18.0685 24.2558 17.9324 24.231 17.8C24.2062 17.6677 24.1549 17.5417 24.0802 17.4296C24.0055 17.3175 23.9089 17.2217 23.7962 17.1479C23.6836 17.0741 23.5572 17.0237 23.4246 17Z" fill="#F05E23"/>
</svg>
