<svg width="43" height="43" viewBox="0 0 43 43" fill="none" xmlns="http://www.w3.org/2000/svg">
<path d="M34.3669 0.465698C33.4229 0.465698 32.4761 0.823959 31.7646 1.53549L30.8489 2.4559C30.8116 2.4875 30.7762 2.52128 30.7429 2.55708L30.2851 3.01488C30.2001 3.09567 30.1271 3.18816 30.0682 3.28955L28.0249 5.52071C28.0116 5.53645 27.9988 5.55251 27.9863 5.5689L21.2925 12.2623L10.3144 1.28491C9.8496 0.820104 9.21509 0.590989 8.57953 0.590989C7.94396 0.590989 7.30946 0.820105 6.84462 1.28491L0.921858 7.20732C-0.00780693 8.13693 -0.00780693 9.75213 0.921858 10.6817L0.92667 10.6867L12.0108 21.5388L5.19646 28.3527C4.99461 28.4031 4.80879 28.5038 4.65628 28.6453C4.50378 28.7869 4.38954 28.9646 4.3242 29.1622L0.62307 40.5106C0.552086 40.7273 0.542552 40.9595 0.595525 41.1813C0.648498 41.4031 0.761905 41.6058 0.923156 41.7671C1.08441 41.9283 1.28719 42.0417 1.509 42.0947C1.7308 42.1477 1.96295 42.1381 2.17966 42.0671L13.5288 38.3662C13.7835 38.2812 14.0034 38.1154 14.1553 37.894L21.2636 30.7861L32.0055 41.7636L32.0105 41.7685C32.9401 42.6981 34.5554 42.6981 35.4851 41.7685L41.4079 35.8461C42.3375 34.9165 42.3375 33.3061 41.4079 32.3765L30.5405 21.5098L37.6006 14.4501C37.7233 14.3269 37.8185 14.1791 37.8801 14.0164L39.403 12.6189C39.4046 12.6173 39.4063 12.6156 39.4079 12.614C39.507 12.5577 39.5978 12.488 39.6778 12.4068L40.1356 11.949C40.1767 11.9131 40.2153 11.8744 40.2512 11.8334L41.1572 10.9274C42.5804 9.50435 42.5804 7.1509 41.1572 5.72783L36.9645 1.53549C36.2529 0.823959 35.3109 0.465698 34.3669 0.465698ZM34.362 2.8655C34.652 2.8655 34.9444 3.00456 35.2198 3.27993L39.4125 7.47236C39.9633 8.02311 39.9633 8.63231 39.4125 9.18307L38.4825 10.1179C38.4776 10.1227 38.4728 10.1276 38.4679 10.1325L38.4102 10.1855L36.6705 11.7757L30.9164 6.02196L32.5597 4.22452L33.5091 3.28002C33.7845 3.00464 34.0721 2.86559 34.3621 2.86559L34.362 2.8655ZM8.57953 3.03898L19.548 14.0068L13.7601 19.7942L11.9529 18.0209L16.1745 13.7995L13.7312 11.3564L9.48071 15.6066L6.94101 13.1153L8.65181 11.4046L6.20849 8.96621L4.47359 10.701L2.67604 8.94211L8.57953 3.03898ZM28.9405 8.10363L30.4827 9.64567L8.96024 31.1668L7.4181 29.6248L28.9405 8.10363ZM32.926 12.0888L34.6994 13.8622L13.177 35.3833L11.4036 33.61L32.926 12.0888V12.0888ZM28.796 23.2542L39.6536 34.1112L33.7501 40.0143L32.1935 38.4289L36.3572 34.2654L33.9139 31.8222L29.7791 35.9616L27.1189 33.2438L28.8393 31.5234L26.396 29.0802L24.7045 30.7717L23.0081 29.0417L28.796 23.2542V23.2542ZM6.04464 31.8415L10.8494 36.6459L4.53624 38.7036L3.98685 38.1542L6.04464 31.8415Z" fill="#F05E23"/>
</svg>
